<svg width="48" height="48" viewBox="0 0 48 48" fill="none" xmlns="http://www.w3.org/2000/svg">
<rect opacity="0.9" width="48" height="48" rx="4" fill="#FFEDD5"/>
<path fill-rule="evenodd" clip-rule="evenodd" d="M16 35.9999H13.3333C12.5973 35.9999 12 35.4026 12 34.6666V26.6666C12 25.9306 12.5973 25.3333 13.3333 25.3333H16C16.736 25.3333 17.3333 25.9306 17.3333 26.6666V34.6666C17.3333 35.4026 16.736 35.9999 16 35.9999Z" stroke="#5C3209" stroke-width="2" stroke-linecap="round" stroke-linejoin="round"/>
<path d="M25.333 30.6669H28.4437C29.021 30.6669 29.5823 30.4803 30.0437 30.1336L33.265 27.7176C34.069 27.1149 35.1943 27.1949 35.905 27.9056V27.9056C36.6943 28.6949 36.6943 29.9736 35.905 30.7616L33.141 33.5256C32.397 34.2696 31.4477 34.7776 30.4157 34.9843L26.509 35.7656C25.7343 35.9203 24.9357 35.9016 24.169 35.7096L20.6357 34.8269C20.213 34.7203 19.7797 34.6669 19.3437 34.6669H17.333" stroke="#5C3209" stroke-width="2" stroke-linecap="round" stroke-linejoin="round"/>
<path d="M25.333 30.6666H27.313C28.429 30.6666 29.333 29.7626 29.333 28.6466V28.2426C29.333 27.3159 28.7023 26.5079 27.8037 26.2839L24.7477 25.5199C24.2503 25.3959 23.741 25.3333 23.229 25.3333V25.3333C21.993 25.3333 20.7837 25.6986 19.7557 26.3853L17.333 27.9999" stroke="#5C3209" stroke-width="2" stroke-linecap="round" stroke-linejoin="round"/>
<path d="M30.8913 14.8737C32.3691 16.3514 32.3691 18.7473 30.8913 20.2251C29.4136 21.7028 27.0177 21.7028 25.54 20.2251C24.0622 18.7473 24.0622 16.3514 25.54 14.8737C27.0177 13.3959 29.4136 13.3959 30.8913 14.8737" stroke="#FFA12B" stroke-width="2" stroke-linecap="round" stroke-linejoin="round"/>
<path d="M27.508 13.8334C27.384 13.0801 27.04 12.3561 26.4587 11.7747C24.9813 10.2974 22.5853 10.2974 21.108 11.7747C19.6307 13.2521 19.6307 15.6481 21.108 17.1254C22.028 18.0454 23.3027 18.3907 24.4907 18.1654" stroke="#FFA12B" stroke-width="2" stroke-linecap="round" stroke-linejoin="round"/>
</svg>
