<svg width="48" height="48" viewBox="0 0 48 48" fill="none" xmlns="http://www.w3.org/2000/svg">
<rect opacity="0.9" width="48" height="48" rx="4" fill="#FFEDD5"/>
<path d="M23.999 16.5C23.7963 16.5 23.6323 16.664 23.635 16.8666C23.635 17.0693 23.799 17.2333 24.0016 17.2333C24.2043 17.2333 24.3683 17.0693 24.3683 16.8666C24.3656 16.664 24.203 16.5 23.999 16.5" stroke="#FFA12B" stroke-width="2" stroke-linecap="round" stroke-linejoin="round"/>
<path d="M17.2319 23.9987C17.2319 23.7961 17.0679 23.6321 16.8666 23.6347C16.6639 23.6347 16.4999 23.7987 16.4999 24.0014C16.4999 24.2041 16.6639 24.3681 16.8666 24.3681C17.0692 24.3681 17.2319 24.2027 17.2319 23.9987" stroke="#FFA12B" stroke-width="2" stroke-linecap="round" stroke-linejoin="round"/>
<path d="M29.303 18.6961C29.1603 18.5534 28.9283 18.5534 28.787 18.6974C28.6443 18.8401 28.6443 19.0721 28.787 19.2147C28.9297 19.3574 29.1617 19.3574 29.3043 19.2147C29.447 19.0707 29.447 18.8401 29.303 18.6961" stroke="#FFA12B" stroke-width="2" stroke-linecap="round" stroke-linejoin="round"/>
<path d="M19.2131 28.7852C19.0705 28.6425 18.8385 28.6425 18.6971 28.7865C18.5545 28.9292 18.5545 29.1612 18.6971 29.3038C18.8398 29.4465 19.0718 29.4465 19.2145 29.3038C19.3571 29.1612 19.3571 28.9292 19.2131 28.7852" stroke="#FFA12B" stroke-width="2" stroke-linecap="round" stroke-linejoin="round"/>
<path d="M19.2151 19.2134C19.3578 19.0707 19.3578 18.8387 19.2138 18.6974C19.0711 18.5547 18.8391 18.5547 18.6965 18.6974C18.5538 18.8401 18.5538 19.0721 18.6965 19.2147C18.8391 19.3574 19.0711 19.3574 19.2151 19.2134" stroke="#FFA12B" stroke-width="2" stroke-linecap="round" stroke-linejoin="round"/>
<path fill-rule="evenodd" clip-rule="evenodd" d="M23.9994 36.0001C17.2594 36.0001 11.8167 30.4428 12.0047 23.6601C12.1781 17.3988 17.3981 12.1788 23.6594 12.0055C30.4421 11.8175 35.9994 17.2601 35.9994 24.0001V25.3335C35.9994 26.8068 34.8061 28.0001 33.3327 28.0001H30.5821C28.8101 28.0001 27.5314 29.6961 28.0181 31.3988L28.3607 32.6001C28.8487 34.3041 27.5687 36.0001 25.7981 36.0001H23.9994Z" stroke="#5C3209" stroke-width="2" stroke-linecap="round" stroke-linejoin="round"/>
</svg>
