<svg width="48" height="48" viewBox="0 0 48 48" fill="none" xmlns="http://www.w3.org/2000/svg">
<rect opacity="0.9" width="48" height="48" rx="4" fill="#FFEDD5"/>
<path d="M13.333 13.3333V10.9636C13.333 9.32622 14.6592 8 16.2966 8H37.0379C38.6735 8 39.9997 9.32622 39.9997 10.9636V31.7049C39.9997 33.3404 38.6735 34.6667 37.0361 34.6667H34.6663" stroke="#FFA12B" stroke-width="2" stroke-linecap="round" stroke-linejoin="round"/>
<path fill-rule="evenodd" clip-rule="evenodd" d="M31.7031 39.9999H10.9636C9.32622 39.9999 8 38.6737 8 37.0364V16.2968C8 14.6595 9.32622 13.3333 10.9636 13.3333H31.7049C33.3404 13.3333 34.6667 14.6595 34.6667 16.2968V37.0381C34.6667 38.6737 33.3404 39.9999 31.7031 39.9999Z" stroke="#5C3209" stroke-width="2" stroke-linecap="round" stroke-linejoin="round"/>
<path d="M24.4769 20.7395C26.212 22.4746 26.212 25.2888 24.4769 27.0257C22.7418 28.7608 19.9276 28.7608 18.1907 27.0257C16.4538 25.2906 16.4556 22.4764 18.1907 20.7395C19.9258 19.0026 22.74 19.0044 24.4769 20.7395" stroke="#5C3209" stroke-width="2" stroke-linecap="round" stroke-linejoin="round"/>
<path d="M29.333 35.4382C29.1001 34.8533 28.7392 34.327 28.277 33.8986V33.8986C27.4966 33.1733 26.4743 32.7715 25.4077 32.7715C23.6299 32.7715 19.0361 32.7715 17.2583 32.7715C16.1917 32.7715 15.1712 33.175 14.389 33.8986V33.8986C13.9268 34.327 13.5659 34.8533 13.333 35.4382" stroke="#5C3209" stroke-width="2" stroke-linecap="round" stroke-linejoin="round"/>
</svg>
