<svg width="151" height="42" viewBox="0 0 151 42" fill="none" xmlns="http://www.w3.org/2000/svg">
  <path d="M27.3328 31.0259C27.8011 32.7923 28.5567 33.4754 29.8919 33.4754C31.2762 33.4754 32.0021 32.6459 32.0021 31.0259V0.948269H40.6734V31.0259C40.6734 35.2655 40.1219 37.1025 37.9666 39.2527C36.4132 40.8022 33.5481 42 29.9303 42C27.0075 42 24.2106 41.0351 22.427 39.253C20.8632 37.6904 20.0042 36.0855 18.6618 31.0256L13.3409 10.9741C12.8723 9.20769 12.117 8.52493 10.7818 8.52493C9.39717 8.52493 8.67129 9.35408 8.67129 10.9741V41.052H0V10.9741C0 6.73478 0.551761 4.89751 2.7071 2.74731C4.25988 1.19837 7.12535 0 10.7434 0C13.6663 0 16.4631 0.96516 18.2467 2.74702C19.8105 4.30958 20.6695 5.91453 22.0119 10.9744L27.3328 31.0259Z" fill="#28190E" />
  <path d="M142.037 41.052L132.023 9.80747C131.912 9.46254 131.808 9.16976 131.647 8.97447C131.372 8.6405 130.992 8.46508 130.479 8.46508C129.967 8.46508 129.587 8.6405 129.311 8.97447C129.151 9.16946 129.047 9.46224 128.936 9.80747L118.922 41.052H109.959L120.898 6.92118C121.468 5.14317 122.282 3.63365 123.316 2.62789C125.09 0.902929 127.181 0 130.48 0C133.779 0 135.869 0.902929 137.643 2.62759C138.677 3.63365 139.491 5.14288 140.062 6.92088L151 41.0517H142.037V41.052Z" fill="#28190E" />
  <path d="M97.7185 41.052C103.4 41.052 106.17 39.8483 108.36 37.6771C110.782 35.2753 111.941 32.6474 111.941 28.7239C111.941 25.2571 110.668 22.0461 108.731 20.1246C106.198 17.612 103.051 16.8202 97.9202 16.8202L90.7337 16.8199C87.9876 16.8199 86.8933 16.4889 86.0275 15.6405C85.433 15.0585 85.1543 14.1929 85.1543 13.1726C85.1543 12.118 85.4089 11.0764 86.1357 10.3649C86.7807 9.73339 87.6599 9.44357 89.3494 9.44357H110.119V0.948269H90.9357C85.2547 0.948269 82.484 2.15227 80.2945 4.32322C77.8723 6.725 76.7132 9.3526 76.7132 13.2761C76.7132 16.7435 77.9858 19.9542 79.9234 21.8754C82.457 24.388 85.6032 25.1801 90.734 25.1801L97.9208 25.1807C100.667 25.1807 101.761 25.5111 102.627 26.3598C103.222 26.9421 103.5 27.8074 103.5 28.8277C103.5 29.8823 103.246 30.9239 102.519 31.6354C101.874 32.2669 100.995 32.5567 99.3051 32.5567H77.8842L69.6684 6.92118C69.0985 5.14317 68.2838 3.63365 67.2501 2.62789C65.476 0.902929 63.3854 0 60.0864 0C56.7875 0 54.6966 0.902929 52.9234 2.62759C51.8894 3.63365 51.0749 5.14288 50.5051 6.92088L39.5664 41.0517H48.5295L58.5438 9.80717C58.6543 9.46224 58.7586 9.16946 58.919 8.97418C59.1942 8.64021 59.5751 8.46478 60.087 8.46478C60.599 8.46478 60.9796 8.64021 61.255 8.97418C61.4155 9.16916 61.5198 9.46194 61.63 9.80717L71.6443 41.0517H97.7185V41.052Z" fill="#28190E" />
</svg>
