<svg width="142" height="39" viewBox="0 0 142 39" fill="none" xmlns="http://www.w3.org/2000/svg">
<path d="M25.7037 28.8097C26.1441 30.45 26.8546 31.0843 28.1103 31.0843C29.4121 31.0843 30.0947 30.3141 30.0947 28.8097V0.880535H38.2492V28.8097C38.2492 32.7466 37.7306 34.4523 35.7037 36.4489C34.2429 37.8878 31.5485 39 28.1463 39C25.3977 39 22.7676 38.1041 21.0903 36.4492C19.6197 34.9982 18.8119 33.5079 17.5495 28.8095L12.5458 10.1903C12.1051 8.55 11.3948 7.91601 10.1391 7.91601C8.83707 7.91601 8.15446 8.68593 8.15446 10.1903V38.1197H0V10.1903C0 6.25373 0.518874 4.54769 2.54575 2.55108C4.00598 1.11278 6.70066 0 10.1031 0C12.8517 0 15.4818 0.89622 17.1592 2.5508C18.6297 4.00176 19.4375 5.49206 20.6999 10.1905L25.7037 28.8097Z" fill="#28190E"/>
<path d="M133.571 38.1197L124.154 9.10693C124.05 8.78664 123.952 8.51477 123.801 8.33344C123.542 8.02333 123.184 7.86043 122.703 7.86043C122.221 7.86043 121.863 8.02333 121.604 8.33344C121.454 8.5145 121.355 8.78636 121.252 9.10693L111.834 38.1197H103.405L113.692 6.42681C114.228 4.7758 114.994 3.3741 115.966 2.44018C117.635 0.838435 119.6 0 122.703 0C125.805 0 127.771 0.838434 129.439 2.43991C130.411 3.3741 131.177 4.77553 131.714 6.42653L142 38.1195H133.571V38.1197Z" fill="#28190E"/>
<path d="M91.8941 38.1197C97.2365 38.1197 99.8423 37.002 101.901 34.9859C104.179 32.7556 105.269 30.3154 105.269 26.6722C105.269 23.4531 104.072 20.4713 102.25 18.6872C99.8678 16.354 96.9087 15.6188 92.0838 15.6188L85.3256 15.6185C82.7432 15.6185 81.7141 15.3111 80.8999 14.5233C80.3408 13.9829 80.0787 13.1791 80.0787 12.2317C80.0787 11.2524 80.3182 10.2852 81.0016 9.62452C81.6082 9.03814 82.435 8.76903 84.0238 8.76903H103.556V0.880535H85.5156C80.1731 0.880535 77.5676 1.99854 75.5086 4.01441C73.2308 6.24464 72.1408 8.68455 72.1408 12.3278C72.1408 15.5475 73.3375 18.5289 75.1596 20.3128C77.5422 22.646 80.5009 23.3815 85.3259 23.3815L92.0844 23.3821C94.6667 23.3821 95.6958 23.6889 96.51 24.477C97.0691 25.0177 97.3312 25.8211 97.3312 26.7685C97.3312 27.7479 97.0918 28.7151 96.4086 29.3758C95.8017 29.9621 94.9749 30.2312 93.3861 30.2312H73.242L65.5159 6.42681C64.9799 4.7758 64.2138 3.3741 63.2417 2.44018C61.5733 0.838435 59.6073 0 56.505 0C53.4026 0 51.4364 0.838434 49.7688 2.43991C48.7965 3.3741 48.0306 4.77553 47.4947 6.42653L37.208 38.1195H45.6369L55.0543 9.10666C55.1582 8.78637 55.2563 8.5145 55.4072 8.33316C55.6659 8.02305 56.0241 7.86015 56.5056 7.86015C56.987 7.86015 57.3449 8.02305 57.6039 8.33316C57.7548 8.51422 57.8529 8.78609 57.9566 9.10666L67.374 38.1195H91.8941V38.1197Z" fill="#28190E"/>
</svg>
