<svg width="48" height="48" viewBox="0 0 48 48" fill="none" xmlns="http://www.w3.org/2000/svg">
<g clip-path="url(#clip0_1284_1654)">
<path d="M24 47.999C37.2548 47.999 48 37.2539 48 23.999C48 10.7442 37.2548 -0.000976562 24 -0.000976562C10.7452 -0.000976562 0 10.7442 0 23.999C0 37.2539 10.7452 47.999 24 47.999Z" fill="#9B6F54"/>
<path fill-rule="evenodd" clip-rule="evenodd" d="M10.864 23.7459C17.8605 20.6977 22.5259 18.6881 24.8603 17.7171C31.5254 14.9449 32.9103 14.4633 33.813 14.4474C34.0115 14.4439 34.4554 14.4931 34.743 14.7265C34.9858 14.9235 35.0526 15.1896 35.0846 15.3764C35.1165 15.5632 35.1563 15.9887 35.1247 16.3212C34.7635 20.1162 33.2007 29.3256 32.4056 33.576C32.0692 35.3745 31.4067 35.9775 30.7654 36.0365C29.3717 36.1648 28.3134 35.1155 26.9635 34.2306C24.8512 32.846 23.6578 31.984 21.6075 30.6328C19.2379 29.0713 20.774 28.2131 22.1244 26.8105C22.4778 26.4435 28.6186 20.858 28.7374 20.3513C28.7523 20.2879 28.7661 20.0517 28.6258 19.927C28.4854 19.8022 28.2783 19.8449 28.1289 19.8788C27.917 19.9269 24.5426 22.1573 18.0055 26.5699C17.0477 27.2277 16.1801 27.5481 15.4028 27.5313C14.5459 27.5128 12.8975 27.0468 11.6721 26.6485C10.1691 26.1599 8.97456 25.9016 9.07858 25.0719C9.13276 24.6397 9.72791 24.1977 10.864 23.7459Z" fill="#FFEDD5"/>
</g>
<defs>
<clipPath id="clip0_1284_1654">
<rect width="48" height="48" fill="white" transform="translate(0 -0.000976562)"/>
</clipPath>
</defs>
</svg>
